<svg width="80" height="26" viewBox="0 0 80 26" fill="none" xmlns="http://www.w3.org/2000/svg">
<mask id="path-1-outside-1_399_8869" maskUnits="userSpaceOnUse" x="1" y="1" width="79" height="19" fill="black">
<rect fill="white" x="1" y="1" width="79" height="19"/>
<path d="M2.1 3.628V2.2H18.9V3.628H11.193V19H9.786V3.628H2.1ZM28.3418 2.2C32.9618 2.2 36.7418 5.98 36.7418 10.6C36.7418 15.241 32.9618 19 28.3418 19C23.7008 19 19.9418 15.241 19.9418 10.6C19.9418 5.98 23.7008 2.2 28.3418 2.2ZM28.3418 17.593C32.1848 17.593 35.3138 14.464 35.3138 10.6C35.3138 6.757 32.1848 3.628 28.3418 3.628C24.4778 3.628 21.3488 6.757 21.3488 10.6C21.3488 14.464 24.4778 17.593 28.3418 17.593ZM29.3918 10.6C29.3918 11.188 28.9088 11.671 28.3418 11.671C27.7538 11.671 27.2708 11.188 27.2708 10.6C27.2708 10.033 27.7538 9.55 28.3418 9.55C28.9088 9.55 29.3918 10.033 29.3918 10.6ZM49.3418 2.2C53.9618 2.2 57.7418 5.98 57.7418 10.6C57.7418 15.241 53.9618 19 49.3418 19H40.9418V9.907H42.3488V17.593H49.3418C53.1848 17.593 56.3138 14.464 56.3138 10.6C56.3138 6.757 53.1848 3.628 49.3418 3.628H40.9418V2.2H49.3418ZM70.3418 2.2C74.9618 2.2 78.7418 5.98 78.7418 10.6C78.7418 15.241 74.9618 19 70.3418 19C65.7008 19 61.9418 15.241 61.9418 10.6C61.9418 5.98 65.7008 2.2 70.3418 2.2ZM70.3418 17.593C74.1848 17.593 77.3138 14.464 77.3138 10.6C77.3138 6.757 74.1848 3.628 70.3418 3.628C66.4778 3.628 63.3488 6.757 63.3488 10.6C63.3488 14.464 66.4778 17.593 70.3418 17.593ZM71.3918 10.6C71.3918 11.188 70.9088 11.671 70.3418 11.671C69.7538 11.671 69.2708 11.188 69.2708 10.6C69.2708 10.033 69.7538 9.55 70.3418 9.55C70.9088 9.55 71.3918 10.033 71.3918 10.6Z"/>
</mask>
<path d="M2.1 3.628V2.2H18.9V3.628H11.193V19H9.786V3.628H2.1ZM28.3418 2.2C32.9618 2.2 36.7418 5.98 36.7418 10.6C36.7418 15.241 32.9618 19 28.3418 19C23.7008 19 19.9418 15.241 19.9418 10.6C19.9418 5.98 23.7008 2.2 28.3418 2.2ZM28.3418 17.593C32.1848 17.593 35.3138 14.464 35.3138 10.6C35.3138 6.757 32.1848 3.628 28.3418 3.628C24.4778 3.628 21.3488 6.757 21.3488 10.6C21.3488 14.464 24.4778 17.593 28.3418 17.593ZM29.3918 10.6C29.3918 11.188 28.9088 11.671 28.3418 11.671C27.7538 11.671 27.2708 11.188 27.2708 10.6C27.2708 10.033 27.7538 9.55 28.3418 9.55C28.9088 9.55 29.3918 10.033 29.3918 10.6ZM49.3418 2.2C53.9618 2.2 57.7418 5.98 57.7418 10.6C57.7418 15.241 53.9618 19 49.3418 19H40.9418V9.907H42.3488V17.593H49.3418C53.1848 17.593 56.3138 14.464 56.3138 10.6C56.3138 6.757 53.1848 3.628 49.3418 3.628H40.9418V2.2H49.3418ZM70.3418 2.2C74.9618 2.2 78.7418 5.98 78.7418 10.6C78.7418 15.241 74.9618 19 70.3418 19C65.7008 19 61.9418 15.241 61.9418 10.6C61.9418 5.98 65.7008 2.2 70.3418 2.2ZM70.3418 17.593C74.1848 17.593 77.3138 14.464 77.3138 10.6C77.3138 6.757 74.1848 3.628 70.3418 3.628C66.4778 3.628 63.3488 6.757 63.3488 10.6C63.3488 14.464 66.4778 17.593 70.3418 17.593ZM71.3918 10.6C71.3918 11.188 70.9088 11.671 70.3418 11.671C69.7538 11.671 69.2708 11.188 69.2708 10.6C69.2708 10.033 69.7538 9.55 70.3418 9.55C70.9088 9.55 71.3918 10.033 71.3918 10.6Z" fill="#4260FF"/>
<path d="M2.1 3.628H1.1V4.628H2.1V3.628ZM2.1 2.2V1.2H1.1V2.2H2.1ZM18.9 2.2H19.9V1.2H18.9V2.2ZM18.9 3.628V4.628H19.9V3.628H18.9ZM11.193 3.628V2.628H10.193V3.628H11.193ZM11.193 19V20H12.193V19H11.193ZM9.786 19H8.786V20H9.786V19ZM9.786 3.628H10.786V2.628H9.786V3.628ZM3.1 3.628V2.2H1.1V3.628H3.1ZM2.1 3.2H18.9V1.2H2.1V3.2ZM17.9 2.2V3.628H19.9V2.2H17.9ZM18.9 2.628H11.193V4.628H18.9V2.628ZM10.193 3.628V19H12.193V3.628H10.193ZM11.193 18H9.786V20H11.193V18ZM10.786 19V3.628H8.786V19H10.786ZM9.786 2.628H2.1V4.628H9.786V2.628ZM28.3418 3.2C32.4095 3.2 35.7418 6.53228 35.7418 10.6H37.7418C37.7418 5.42772 33.5141 1.2 28.3418 1.2V3.2ZM35.7418 10.6C35.7418 14.6871 32.4111 18 28.3418 18V20C33.5125 20 37.7418 15.7949 37.7418 10.6H35.7418ZM28.3418 18C24.2531 18 20.9418 14.6887 20.9418 10.6H18.9418C18.9418 15.7933 23.1485 20 28.3418 20V18ZM20.9418 10.6C20.9418 6.53066 24.2547 3.2 28.3418 3.2V1.2C23.1469 1.2 18.9418 5.42934 18.9418 10.6H20.9418ZM28.3418 18.593C32.739 18.593 36.3138 15.0143 36.3138 10.6H34.3138C34.3138 13.9137 31.6306 16.593 28.3418 16.593V18.593ZM36.3138 10.6C36.3138 6.20472 32.7371 2.628 28.3418 2.628V4.628C31.6325 4.628 34.3138 7.30928 34.3138 10.6H36.3138ZM28.3418 2.628C23.9275 2.628 20.3488 6.20276 20.3488 10.6H22.3488C22.3488 7.31124 25.0281 4.628 28.3418 4.628V2.628ZM20.3488 10.6C20.3488 15.0163 23.9255 18.593 28.3418 18.593V16.593C25.0301 16.593 22.3488 13.9117 22.3488 10.6H20.3488ZM28.3918 10.6C28.3918 10.6156 28.3858 10.6352 28.3675 10.6537C28.3485 10.673 28.3367 10.671 28.3418 10.671V12.671C29.4739 12.671 30.3918 11.7274 30.3918 10.6H28.3918ZM28.3418 10.671C28.3269 10.671 28.3096 10.6656 28.2929 10.6489C28.2762 10.6321 28.2708 10.6149 28.2708 10.6H26.2708C26.2708 11.7403 27.2015 12.671 28.3418 12.671V10.671ZM28.2708 10.6C28.2708 10.6051 28.2688 10.5933 28.2881 10.5743C28.3066 10.556 28.3262 10.55 28.3418 10.55V8.55C27.2144 8.55 26.2708 9.46793 26.2708 10.6H28.2708ZM28.3418 10.55C28.3375 10.55 28.3516 10.5488 28.3723 10.5695C28.393 10.5902 28.3918 10.6043 28.3918 10.6H30.3918C30.3918 9.48071 29.4611 8.55 28.3418 8.55V10.55ZM40.9418 19H39.9418V20H40.9418V19ZM40.9418 9.907V8.907H39.9418V9.907H40.9418ZM42.3488 9.907H43.3488V8.907H42.3488V9.907ZM42.3488 17.593H41.3488V18.593H42.3488V17.593ZM40.9418 3.628H39.9418V4.628H40.9418V3.628ZM40.9418 2.2V1.2H39.9418V2.2H40.9418ZM49.3418 3.2C53.4095 3.2 56.7418 6.53228 56.7418 10.6H58.7418C58.7418 5.42772 54.5141 1.2 49.3418 1.2V3.2ZM56.7418 10.6C56.7418 14.6871 53.4111 18 49.3418 18V20C54.5125 20 58.7418 15.7949 58.7418 10.6H56.7418ZM49.3418 18H40.9418V20H49.3418V18ZM41.9418 19V9.907H39.9418V19H41.9418ZM40.9418 10.907H42.3488V8.907H40.9418V10.907ZM41.3488 9.907V17.593H43.3488V9.907H41.3488ZM42.3488 18.593H49.3418V16.593H42.3488V18.593ZM49.3418 18.593C53.739 18.593 57.3138 15.0143 57.3138 10.6H55.3138C55.3138 13.9137 52.6306 16.593 49.3418 16.593V18.593ZM57.3138 10.6C57.3138 6.20472 53.7371 2.628 49.3418 2.628V4.628C52.6325 4.628 55.3138 7.30928 55.3138 10.6H57.3138ZM49.3418 2.628H40.9418V4.628H49.3418V2.628ZM41.9418 3.628V2.2H39.9418V3.628H41.9418ZM40.9418 3.2H49.3418V1.2H40.9418V3.2ZM70.3418 3.2C74.4095 3.2 77.7418 6.53228 77.7418 10.6H79.7418C79.7418 5.42772 75.5141 1.2 70.3418 1.2V3.2ZM77.7418 10.6C77.7418 14.6871 74.4111 18 70.3418 18V20C75.5125 20 79.7418 15.7949 79.7418 10.6H77.7418ZM70.3418 18C66.2531 18 62.9418 14.6887 62.9418 10.6H60.9418C60.9418 15.7933 65.1485 20 70.3418 20V18ZM62.9418 10.6C62.9418 6.53066 66.2547 3.2 70.3418 3.2V1.2C65.1469 1.2 60.9418 5.42934 60.9418 10.6H62.9418ZM70.3418 18.593C74.739 18.593 78.3138 15.0143 78.3138 10.6H76.3138C76.3138 13.9137 73.6306 16.593 70.3418 16.593V18.593ZM78.3138 10.6C78.3138 6.20472 74.7371 2.628 70.3418 2.628V4.628C73.6325 4.628 76.3138 7.30928 76.3138 10.6H78.3138ZM70.3418 2.628C65.9275 2.628 62.3488 6.20276 62.3488 10.6H64.3488C64.3488 7.31124 67.0281 4.628 70.3418 4.628V2.628ZM62.3488 10.6C62.3488 15.0163 65.9255 18.593 70.3418 18.593V16.593C67.0301 16.593 64.3488 13.9117 64.3488 10.6H62.3488ZM70.3918 10.6C70.3918 10.6156 70.3858 10.6352 70.3675 10.6537C70.3485 10.673 70.3367 10.671 70.3418 10.671V12.671C71.4739 12.671 72.3918 11.7274 72.3918 10.6H70.3918ZM70.3418 10.671C70.3269 10.671 70.3096 10.6656 70.2929 10.6489C70.2762 10.6321 70.2708 10.6149 70.2708 10.6H68.2708C68.2708 11.7403 69.2015 12.671 70.3418 12.671V10.671ZM70.2708 10.6C70.2708 10.6051 70.2688 10.5933 70.2881 10.5743C70.3066 10.556 70.3262 10.55 70.3418 10.55V8.55C69.2144 8.55 68.2708 9.46793 68.2708 10.6H70.2708ZM70.3418 10.55C70.3375 10.55 70.3516 10.5488 70.3723 10.5695C70.393 10.5902 70.3918 10.6043 70.3918 10.6H72.3918C72.3918 9.48071 71.4611 8.55 70.3418 8.55V10.55Z" fill="#4260FF" mask="url(#path-1-outside-1_399_8869)"/>
</svg>
