<svg width="16" height="14" viewBox="0 0 16 14" fill="none" xmlns="http://www.w3.org/2000/svg">
<path fill-rule="evenodd" clip-rule="evenodd" d="M14.3977 1.39775C14.6174 1.17808 14.6174 0.821922 14.3977 0.602252C14.1781 0.382583 13.8219 0.382583 13.6023 0.602252L1.60225 12.6023C1.38258 12.8219 1.38258 13.1781 1.60225 13.3977C1.82192 13.6174 2.17808 13.6174 2.39775 13.3977L4.53292 11.2626C5.55765 11.745 6.73789 12.0625 8 12.0625C10.013 12.0625 11.8178 11.2547 13.1154 10.2587C13.7655 9.75979 14.3024 9.20317 14.6817 8.65664C15.0505 8.12521 15.3125 7.54202 15.3125 7C15.3125 6.45797 15.0505 5.87478 14.6817 5.34336C14.3024 4.79683 13.7655 4.24021 13.1154 3.74127C12.9188 3.59039 12.7106 3.44382 12.4918 3.30372L14.3977 1.39775ZM11.6747 4.12084L10.3465 5.44897C10.641 5.89359 10.8125 6.42677 10.8125 7C10.8125 8.5533 9.5533 9.8125 8 9.8125C7.42677 9.8125 6.89359 9.64101 6.44897 9.34653L5.38643 10.4091C6.18558 10.7346 7.07159 10.9375 8 10.9375C9.71491 10.9375 11.2852 10.2453 12.4305 9.36627C13.0019 8.92771 13.4536 8.45308 13.7574 8.01523C14.0718 7.56228 14.1875 7.20797 14.1875 7C14.1875 6.79202 14.0718 6.43771 13.7574 5.98477C13.4536 5.54692 13.0019 5.07229 12.4305 4.63373C12.1956 4.45345 11.9429 4.28104 11.6747 4.12084ZM7.27245 8.52304C7.49275 8.62846 7.73948 8.6875 8 8.6875C8.93198 8.6875 9.6875 7.93198 9.6875 7C9.6875 6.73948 9.62846 6.49275 9.52304 6.27245L7.27245 8.52304Z" fill="#FF2121"/>
<path d="M8 1.9375C8.73828 1.9375 9.44854 2.04616 10.1161 2.2329C10.2951 2.283 10.3483 2.50617 10.2169 2.63765L9.69493 3.15958C9.63308 3.22143 9.54348 3.24612 9.45813 3.22694C8.98907 3.12151 8.5007 3.0625 8 3.0625C6.28509 3.0625 4.71484 3.75469 3.5695 4.63373C2.99808 5.07229 2.54643 5.54692 2.24257 5.98477C1.92823 6.43771 1.8125 6.79202 1.8125 7C1.8125 7.20797 1.92823 7.56228 2.24257 8.01523C2.49768 8.38284 2.85698 8.77638 3.30387 9.15273C3.4188 9.24952 3.42991 9.4246 3.32366 9.53085L2.88168 9.97283C2.79137 10.0631 2.64721 10.0712 2.54989 9.98844C2.04916 9.56285 1.6304 9.10633 1.31833 8.65664C0.949528 8.12521 0.6875 7.54202 0.6875 7C0.6875 6.45797 0.949528 5.87478 1.31833 5.34336C1.69761 4.79683 2.23447 4.24021 2.88455 3.74127C4.18224 2.74531 5.98699 1.9375 8 1.9375Z" fill="#FF2121"/>
<path d="M8 4.1875C8.05013 4.1875 8.09994 4.18881 8.14943 4.1914C8.34686 4.20174 8.41866 4.43585 8.27886 4.57565L7.45054 5.40397C6.96056 5.57262 6.57263 5.96056 6.40397 6.45054L5.57565 7.27886C5.43585 7.41866 5.20174 7.34686 5.1914 7.14943C5.18881 7.09994 5.1875 7.05013 5.1875 7C5.1875 5.4467 6.4467 4.1875 8 4.1875Z" fill="#FF2121"/>
</svg>
