<svg width="21" height="21" viewBox="0 0 21 21" fill="none" xmlns="http://www.w3.org/2000/svg">
<path d="M4.45532 17.3092L4.86391 16.5073L4.45532 17.3092ZM3.69074 16.5445L2.88883 16.9531H2.88883L3.69074 16.5445ZM17.3094 16.5445L16.5075 16.1359L17.3094 16.5445ZM16.5443 17.3092L16.1357 16.5073L16.5443 17.3092ZM16.5443 3.69074L16.9529 2.88883L16.5443 3.69074ZM17.3094 4.45554L16.5075 4.86413V4.86413L17.3094 4.45554ZM4.45532 3.69074L4.86391 4.49264L4.45532 3.69074ZM3.69074 4.45554L4.49264 4.86413L3.69074 4.45554ZM14 14V13.1C13.5029 13.1 13.1 13.5029 13.1 14H14ZM14.0017 14L14.9015 14.021C14.9072 13.7788 14.8149 13.5444 14.6455 13.3711C14.4762 13.1977 14.2441 13.1 14.0017 13.1V14ZM14.0017 14.0017L13.9802 14.9015C14.2189 14.9072 14.4501 14.8178 14.6229 14.653C14.7957 14.4882 14.8959 14.2615 14.9015 14.0228L14.0017 14.0017ZM14 14.0017H13.1C13.1 14.4904 13.4899 14.8898 13.9785 14.9015L14 14.0017ZM10.5 14V13.1C10.0029 13.1 9.6 13.5029 9.6 14H10.5ZM10.5017 14L11.4015 14.021C11.4072 13.7788 11.3149 13.5444 11.1455 13.3711C10.9762 13.1977 10.7441 13.1 10.5017 13.1V14ZM10.5017 14.0017L10.4802 14.9015C10.7189 14.9072 10.9501 14.8178 11.1229 14.653C11.2957 14.4882 11.3959 14.2615 11.4015 14.0228L10.5017 14.0017ZM10.5 14.0017H9.6C9.6 14.4904 9.98994 14.8898 10.4785 14.9015L10.5 14.0017ZM7 14V13.1C6.50294 13.1 6.1 13.5029 6.1 14H7ZM7.00175 14L7.9015 14.021C7.90717 13.7788 7.81488 13.5444 7.64554 13.3711C7.47619 13.1977 7.24409 13.1 7.00175 13.1V14ZM7.00171 14.0017L6.98018 14.9015C7.2189 14.9072 7.45009 14.8178 7.62288 14.653C7.79567 14.4882 7.89588 14.2615 7.90146 14.0228L7.00171 14.0017ZM7 14.0017H6.1C6.1 14.4904 6.48994 14.8898 6.97847 14.9015L7 14.0017ZM14.0017 10.5H14.9017C14.9017 10.0029 14.4988 9.6 14.0017 9.6V10.5ZM14.0017 10.5017L13.9802 11.4015C14.2225 11.4073 14.457 11.3151 14.6304 11.1457C14.8039 10.9764 14.9017 10.7442 14.9017 10.5017H14.0017ZM14 10.5017H13.1C13.1 10.9904 13.4899 11.3898 13.9785 11.4015L14 10.5017ZM14 10.5V9.6C13.5029 9.6 13.1 10.0029 13.1 10.5H14ZM10.5 10.5V9.6C10.0029 9.6 9.6 10.0029 9.6 10.5H10.5ZM10.5017 10.5L11.4015 10.521C11.4072 10.2788 11.3149 10.0444 11.1455 9.87108C10.9762 9.69773 10.7441 9.6 10.5017 9.6V10.5ZM10.5017 10.5017L10.4802 11.4015C10.7189 11.4072 10.9501 11.3178 11.1229 11.153C11.2957 10.9882 11.3959 10.7615 11.4015 10.5228L10.5017 10.5017ZM10.5 10.5017H9.6C9.6 10.9904 9.98994 11.3898 10.4785 11.4015L10.5 10.5017ZM7 10.5V9.6C6.50294 9.6 6.1 10.0029 6.1 10.5H7ZM7.00175 10.5L7.9015 10.521C7.90717 10.2788 7.81488 10.0444 7.64554 9.87108C7.47619 9.69773 7.24409 9.6 7.00175 9.6V10.5ZM7.00171 10.5017L6.98018 11.4015C7.2189 11.4072 7.45009 11.3178 7.62288 11.153C7.79567 10.9882 7.89588 10.7615 7.90146 10.5228L7.00171 10.5017ZM7 10.5017H6.1C6.1 10.9904 6.48994 11.3898 6.97847 11.4015L7 10.5017ZM3.5 6.1C3.00294 6.1 2.6 6.50294 2.6 7C2.6 7.49706 3.00294 7.9 3.5 7.9V6.1ZM17.5 7.9C17.9971 7.9 18.4 7.49706 18.4 7C18.4 6.50294 17.9971 6.1 17.5 6.1V7.9ZM14.9 1.75C14.9 1.25294 14.4971 0.85 14 0.85C13.5029 0.85 13.1 1.25294 13.1 1.75H14.9ZM13.1 3.5C13.1 3.99706 13.5029 4.4 14 4.4C14.4971 4.4 14.9 3.99706 14.9 3.5H13.1ZM7.9 1.75C7.9 1.25294 7.49706 0.85 7 0.85C6.50294 0.85 6.1 1.25294 6.1 1.75H7.9ZM6.1 3.5C6.1 3.99706 6.50294 4.4 7 4.4C7.49706 4.4 7.9 3.99706 7.9 3.5H6.1ZM6.30017 4.4H14.7002V2.6H6.30017V4.4ZM16.6 6.29996V14.7H18.4V6.29996H16.6ZM14.7002 16.6H6.30017V18.4H14.7002V16.6ZM4.4 14.7V6.29996H2.6V14.7H4.4ZM6.30017 16.6C5.7953 16.6 5.47064 16.5993 5.22388 16.5791C4.98756 16.5598 4.90303 16.5273 4.86391 16.5073L4.04673 18.1111C4.38196 18.2819 4.72981 18.3448 5.07731 18.3732C5.41436 18.4007 5.82495 18.4 6.30017 18.4V16.6ZM2.6 14.7C2.6 15.1752 2.5993 15.5857 2.62683 15.9227C2.65522 16.2702 2.71804 16.6179 2.88883 16.9531L4.49264 16.1359C4.4727 16.0968 4.44015 16.0123 4.42085 15.7761C4.4007 15.5294 4.4 15.2049 4.4 14.7H2.6ZM4.86391 16.5073C4.70411 16.4259 4.57421 16.296 4.49264 16.1359L2.88883 16.9531C3.14283 17.4516 3.54797 17.857 4.04673 18.1111L4.86391 16.5073ZM16.6 14.7C16.6 15.2049 16.5993 15.5295 16.5792 15.7763C16.56 16.0125 16.5274 16.0969 16.5075 16.1359L18.1114 16.9531C18.2822 16.6178 18.3449 16.27 18.3733 15.9225C18.4007 15.5856 18.4 15.1751 18.4 14.7H16.6ZM14.7002 18.4C15.1754 18.4 15.5858 18.4007 15.9227 18.3732C16.2702 18.3447 16.6178 18.2819 16.9529 18.1111L16.1357 16.5073C16.0965 16.5273 16.0121 16.5598 15.7761 16.5791C15.5295 16.5993 15.2051 16.6 14.7002 16.6V18.4ZM16.5075 16.1359C16.4263 16.2954 16.2961 16.4256 16.1357 16.5073L16.9529 18.1111C17.4511 17.8573 17.8571 17.4522 18.1114 16.9531L16.5075 16.1359ZM14.7002 4.4C15.2051 4.4 15.5295 4.4007 15.7761 4.42085C16.0121 4.44014 16.0965 4.47267 16.1357 4.49264L16.9529 2.88883C16.6178 2.71807 16.2702 2.65523 15.9227 2.62683C15.5858 2.5993 15.1754 2.6 14.7002 2.6V4.4ZM18.4 6.29996C18.4 5.82485 18.4007 5.41434 18.3733 5.07744C18.3449 4.73002 18.2822 4.38223 18.1114 4.04694L16.5075 4.86413C16.5274 4.90319 16.56 4.98756 16.5792 5.22374C16.5993 5.47045 16.6 5.79497 16.6 6.29996H18.4ZM16.1357 4.49264C16.296 4.57432 16.4262 4.70456 16.5075 4.86413L18.1114 4.04694C17.8571 3.54795 17.4512 3.14271 16.9529 2.88883L16.1357 4.49264ZM6.30017 2.6C5.82497 2.6 5.41437 2.5993 5.07733 2.62683C4.72983 2.65521 4.38198 2.71802 4.04673 2.88883L4.86391 4.49264C4.90301 4.47272 4.98753 4.44016 5.22386 4.42086C5.47063 4.4007 5.79528 4.4 6.30017 4.4V2.6ZM4.4 6.29996C4.4 5.79506 4.4007 5.47053 4.42085 5.22388C4.44015 4.98775 4.47269 4.90329 4.49264 4.86413L2.88883 4.04694C2.71805 4.38213 2.65522 4.72983 2.62683 5.0773C2.5993 5.41425 2.6 5.82476 2.6 6.29996H4.4ZM4.04673 2.88883C3.54787 3.14302 3.14278 3.54855 2.88883 4.04694L4.49264 4.86413C4.57426 4.70396 4.70421 4.57402 4.86391 4.49264L4.04673 2.88883ZM14 14.9H14.0017V13.1H14V14.9ZM13.102 13.979L13.102 13.9807L14.9015 14.0228L14.9015 14.021L13.102 13.979ZM14.0232 13.102L14.0215 13.102L13.9785 14.9015L13.9802 14.9015L14.0232 13.102ZM14.9 14.0017V14H13.1V14.0017H14.9ZM10.5 14.9H10.5017V13.1H10.5V14.9ZM9.60199 13.979L9.60195 13.9807L11.4015 14.0228L11.4015 14.021L9.60199 13.979ZM10.5232 13.102L10.5215 13.102L10.4785 14.9015L10.4802 14.9015L10.5232 13.102ZM11.4 14.0017V14H9.6V14.0017H11.4ZM7 14.9H7.00175V13.1H7V14.9ZM6.102 13.979L6.10195 13.9807L7.90146 14.0228L7.9015 14.021L6.102 13.979ZM7.02324 13.102L7.02153 13.102L6.97847 14.9015L6.98018 14.9015L7.02324 13.102ZM7.9 14.0017V14H6.1V14.0017H7.9ZM13.1017 10.5V10.5017H14.9017V10.5H13.1017ZM14.0232 9.60201L14.0215 9.60197L13.9785 11.4015L13.9802 11.4015L14.0232 9.60201ZM14.9 10.5017V10.5H13.1V10.5017H14.9ZM14 11.4H14.0017V9.6H14V11.4ZM10.5 11.4H10.5017V9.6H10.5V11.4ZM9.60199 10.479L9.60195 10.4807L11.4015 10.5228L11.4015 10.521L9.60199 10.479ZM10.5232 9.60201L10.5215 9.60197L10.4785 11.4015L10.4802 11.4015L10.5232 9.60201ZM11.4 10.5017V10.5H9.6V10.5017H11.4ZM7 11.4H7.00175V9.6H7V11.4ZM6.102 10.479L6.10195 10.4807L7.90146 10.5228L7.9015 10.521L6.102 10.479ZM7.02324 9.60201L7.02153 9.60197L6.97847 11.4015L6.98018 11.4015L7.02324 9.60201ZM7.9 10.5017V10.5H6.1V10.5017H7.9ZM3.5 7.9H17.5V6.1H3.5V7.9ZM13.1 1.75V3.5H14.9V1.75H13.1ZM6.1 1.75V3.5H7.9V1.75H6.1Z" fill="#4260FF"/>
</svg>
