<svg width="18" height="18" viewBox="0 0 18 18" fill="none" xmlns="http://www.w3.org/2000/svg">
<path fill-rule="evenodd" clip-rule="evenodd" d="M15.3977 3.39775C15.6174 3.17808 15.6174 2.82192 15.3977 2.60225C15.1781 2.38258 14.8219 2.38258 14.6023 2.60225L2.60225 14.6023C2.38258 14.8219 2.38258 15.1781 2.60225 15.3977C2.82192 15.6174 3.17808 15.6174 3.39775 15.3977L5.53292 13.2626C6.55765 13.745 7.73789 14.0625 9 14.0625C11.013 14.0625 12.8178 13.2547 14.1154 12.2587C14.7655 11.7598 15.3024 11.2032 15.6817 10.6566C16.0505 10.1252 16.3125 9.54202 16.3125 9C16.3125 8.45797 16.0505 7.87478 15.6817 7.34336C15.3024 6.79683 14.7655 6.24021 14.1154 5.74127C13.9188 5.59039 13.7106 5.44382 13.4918 5.30372L15.3977 3.39775ZM12.6747 6.12084L11.3465 7.44897C11.641 7.89359 11.8125 8.42677 11.8125 9C11.8125 10.5533 10.5533 11.8125 9 11.8125C8.42677 11.8125 7.89359 11.641 7.44897 11.3465L6.38643 12.4091C7.18558 12.7346 8.07159 12.9375 9 12.9375C10.7149 12.9375 12.2852 12.2453 13.4305 11.3663C14.0019 10.9277 14.4536 10.4531 14.7574 10.0152C15.0718 9.56228 15.1875 9.20797 15.1875 9C15.1875 8.79202 15.0718 8.43771 14.7574 7.98477C14.4536 7.54692 14.0019 7.07229 13.4305 6.63373C13.1956 6.45345 12.9429 6.28104 12.6747 6.12084ZM8.27245 10.523C8.49275 10.6285 8.73948 10.6875 9 10.6875C9.93198 10.6875 10.6875 9.93198 10.6875 9C10.6875 8.73948 10.6285 8.49275 10.523 8.27245L8.27245 10.523Z" fill="#B6B6B6"/>
<path d="M9 3.9375C9.73828 3.9375 10.4485 4.04616 11.1161 4.2329C11.2951 4.283 11.3483 4.50617 11.2169 4.63765L10.6949 5.15958C10.6331 5.22143 10.5435 5.24612 10.4581 5.22694C9.98907 5.12151 9.5007 5.0625 9 5.0625C7.28509 5.0625 5.71484 5.75469 4.5695 6.63373C3.99808 7.07229 3.54643 7.54692 3.24257 7.98477C2.92823 8.43771 2.8125 8.79202 2.8125 9C2.8125 9.20797 2.92823 9.56228 3.24257 10.0152C3.49768 10.3828 3.85698 10.7764 4.30387 11.1527C4.4188 11.2495 4.42991 11.4246 4.32366 11.5308L3.88168 11.9728C3.79137 12.0631 3.64721 12.0712 3.54989 11.9884C3.04916 11.5628 2.6304 11.1063 2.31833 10.6566C1.94953 10.1252 1.6875 9.54202 1.6875 9C1.6875 8.45797 1.94953 7.87478 2.31833 7.34336C2.69761 6.79683 3.23447 6.24021 3.88455 5.74127C5.18224 4.74531 6.98699 3.9375 9 3.9375Z" fill="#B6B6B6"/>
<path d="M9 6.1875C9.05013 6.1875 9.09994 6.18881 9.14943 6.1914C9.34686 6.20174 9.41866 6.43585 9.27886 6.57565L8.45054 7.40397C7.96056 7.57262 7.57263 7.96056 7.40397 8.45054L6.57565 9.27886C6.43585 9.41866 6.20174 9.34686 6.1914 9.14943C6.18881 9.09994 6.1875 9.05013 6.1875 9C6.1875 7.4467 7.4467 6.1875 9 6.1875Z" fill="#B6B6B6"/>
</svg>
