<svg width="18" height="18" viewBox="0 0 18 18" fill="none" xmlns="http://www.w3.org/2000/svg">
<path d="M7.87498 12C7.87498 11.3787 8.37866 10.875 8.99998 10.875C9.62131 10.875 10.125 11.3787 10.125 12C10.125 12.6213 9.62131 13.125 8.99998 13.125C8.37866 13.125 7.87498 12.6213 7.87498 12Z" fill="#B6B6B6"/>
<path fill-rule="evenodd" clip-rule="evenodd" d="M5.71622 7.94788L5.47964 5.81865C5.44931 5.54566 5.44931 5.27016 5.47964 4.99718L5.49672 4.8435C5.67783 3.21346 6.95928 1.92372 8.58812 1.73209C8.86174 1.6999 9.13819 1.6999 9.41181 1.73209C11.0406 1.92372 12.3221 3.21346 12.5032 4.8435L12.5203 4.99718C12.5506 5.27016 12.5506 5.54566 12.5203 5.81865L12.2837 7.94787L12.7987 7.98898C13.6107 8.05381 14.2738 8.66424 14.4054 9.46816C14.68 11.1449 14.68 12.8551 14.4054 14.5319C14.2738 15.3358 13.6107 15.9462 12.7987 16.0111L11.6766 16.1006C9.89503 16.2429 8.10498 16.2429 6.32345 16.1006L5.20135 16.0111C4.3893 15.9462 3.72622 15.3358 3.59459 14.5319C3.32003 12.8551 3.32003 11.1449 3.59459 9.46816C3.72622 8.66424 4.3893 8.05381 5.20135 7.98898L5.71622 7.94788ZM8.71957 2.84938C8.90586 2.82747 9.09407 2.82747 9.28036 2.84938C10.3893 2.97985 11.2618 3.85795 11.3851 4.96774L11.4022 5.12141C11.4233 5.31183 11.4233 5.504 11.4022 5.69441L11.1613 7.86225C9.7219 7.76956 8.27803 7.76956 6.83863 7.86225L6.59776 5.69441C6.5766 5.504 6.5766 5.31183 6.59776 5.12141L6.61484 4.96774C6.73815 3.85795 7.6106 2.97985 8.71957 2.84938ZM11.587 9.02084C9.86509 8.88337 8.13492 8.88337 6.41297 9.02084L5.29087 9.11042C4.99468 9.13406 4.75282 9.35672 4.7048 9.64995C4.44996 11.2063 4.44996 12.7937 4.7048 14.3501C4.75282 14.6433 4.99468 14.866 5.29087 14.8896L6.41297 14.9792C8.13492 15.1167 9.86509 15.1167 11.587 14.9792L12.7091 14.8896C13.0053 14.866 13.2472 14.6433 13.2952 14.3501C13.55 12.7937 13.55 11.2063 13.2952 9.64995C13.2472 9.35672 13.0053 9.13406 12.7091 9.11042L11.587 9.02084Z" fill="#B6B6B6"/>
</svg>
