<svg width="12" height="16" viewBox="0 0 12 16" fill="none" xmlns="http://www.w3.org/2000/svg">
<path d="M4.87498 11C4.87498 10.3786 5.37866 9.87496 5.99998 9.87496C6.62131 9.87496 7.12498 10.3786 7.12498 11C7.12498 11.6213 6.62131 12.125 5.99998 12.125C5.37866 12.125 4.87498 11.6213 4.87498 11Z" fill="#FF2121"/>
<path fill-rule="evenodd" clip-rule="evenodd" d="M2.71622 6.94782L2.47964 4.81859C2.44931 4.5456 2.44931 4.2701 2.47964 3.99712L2.49672 3.84344C2.67783 2.2134 3.95928 0.923657 5.58812 0.732029C5.86174 0.699838 6.13819 0.699838 6.41181 0.732029C8.04065 0.923657 9.3221 2.2134 9.50322 3.84344L9.52029 3.99712C9.55062 4.2701 9.55062 4.5456 9.52029 4.81859L9.28371 6.94781L9.79866 6.98892C10.6107 7.05375 11.2738 7.66418 11.4054 8.4681C11.68 10.1448 11.68 11.8551 11.4054 13.5318C11.2738 14.3357 10.6107 14.9462 9.79866 15.011L8.67657 15.1006C6.89503 15.2428 5.10498 15.2428 3.32345 15.1006L2.20135 15.011C1.3893 14.9462 0.726224 14.3357 0.594587 13.5318C0.320033 11.8551 0.320033 10.1448 0.594587 8.4681C0.726224 7.66418 1.3893 7.05375 2.20135 6.98892L2.71622 6.94782ZM5.71957 1.84932C5.90586 1.82741 6.09407 1.82741 6.28036 1.84932C7.38933 1.97979 8.26179 2.85789 8.3851 3.96768L8.40217 4.12135C8.42333 4.31177 8.42333 4.50394 8.40217 4.69435L8.1613 6.86219C6.7219 6.7695 5.27803 6.7695 3.83863 6.86219L3.59776 4.69435C3.5766 4.50394 3.5766 4.31176 3.59776 4.12135L3.61484 3.96768C3.73815 2.85789 4.6106 1.97979 5.71957 1.84932ZM8.58704 8.02077C6.86509 7.88331 5.13492 7.88331 3.41297 8.02077L2.29087 8.11035C1.99468 8.134 1.75282 8.35666 1.7048 8.64989C1.44996 10.2062 1.44996 11.7937 1.7048 13.35C1.75282 13.6433 1.99468 13.8659 2.29087 13.8896L3.41297 13.9791C5.13492 14.1166 6.86509 14.1166 8.58704 13.9791L9.70914 13.8896C10.0053 13.8659 10.2472 13.6433 10.2952 13.35C10.55 11.7937 10.55 10.2062 10.2952 8.64989C10.2472 8.35666 10.0053 8.134 9.70914 8.11035L8.58704 8.02077Z" fill="#FF2121"/>
</svg>
