<svg width="18" height="18" viewBox="0 0 18 18" fill="none" xmlns="http://www.w3.org/2000/svg">
<path d="M9 9.5625C6.6225 9.5625 4.6875 7.6275 4.6875 5.25C4.6875 2.8725 6.6225 0.9375 9 0.9375C11.3775 0.9375 13.3125 2.8725 13.3125 5.25C13.3125 7.6275 11.3775 9.5625 9 9.5625ZM9 2.0625C7.245 2.0625 5.8125 3.495 5.8125 5.25C5.8125 7.005 7.245 8.4375 9 8.4375C10.755 8.4375 12.1875 7.005 12.1875 5.25C12.1875 3.495 10.755 2.0625 9 2.0625Z" fill="#FF2121"/>
<path d="M15.4436 17.0625C15.1361 17.0625 14.8811 16.8075 14.8811 16.5C14.8811 13.9125 12.2411 11.8125 9.00109 11.8125C5.76109 11.8125 3.12109 13.9125 3.12109 16.5C3.12109 16.8075 2.86609 17.0625 2.55859 17.0625C2.25109 17.0625 1.99609 16.8075 1.99609 16.5C1.99609 13.2975 5.13859 10.6875 9.00109 10.6875C12.8636 10.6875 16.0061 13.2975 16.0061 16.5C16.0061 16.8075 15.7511 17.0625 15.4436 17.0625Z" fill="#FF2121"/>
</svg>
